<svg width="35" height="26" viewBox="0 0 35 26" fill="none" xmlns="http://www.w3.org/2000/svg">
<path d="M18.3815 9.62473H4.345C4.06184 9.62473 3.83228 9.85422 3.83228 10.1375C3.83228 10.4207 4.06184 10.6502 4.345 10.6502H18.3814C18.6646 10.6502 18.8941 10.4206 18.8941 10.1375C18.8942 9.85422 18.6646 9.62473 18.3815 9.62473Z" fill="#148B45"/>
<path d="M18.3815 12.8604H4.345C4.06184 12.8604 3.83228 13.0899 3.83228 13.3731C3.83228 13.6564 4.06184 13.8859 4.345 13.8859H18.3814C18.6646 13.8859 18.8941 13.6564 18.8941 13.3731C18.8942 13.0899 18.6646 12.8604 18.3815 12.8604Z" fill="#148B45"/>
<path d="M11.3632 16.0961H4.345C4.06184 16.0961 3.83228 16.3257 3.83228 16.6088C3.83228 16.8921 4.06184 17.1216 4.345 17.1216H11.3632C11.6464 17.1216 11.876 16.8921 11.876 16.6088C11.876 16.3256 11.6464 16.0961 11.3632 16.0961Z" fill="#148B45"/>
<path d="M31.8707 3.15338H17.8343C17.5511 3.15338 17.3215 3.38288 17.3215 3.66611C17.3215 3.94934 17.5511 4.17884 17.8343 4.17884H31.8707C32.154 4.17884 32.3835 3.94934 32.3835 3.66611C32.3835 3.38288 32.154 3.15338 31.8707 3.15338Z" fill="#148B45"/>
<path d="M31.8706 6.38904H24.8523C24.5691 6.38904 24.3396 6.61854 24.3396 6.90177C24.3396 7.185 24.5691 7.4145 24.8523 7.4145H31.8706C32.1538 7.4145 32.3833 7.185 32.3833 6.90177C32.3833 6.61854 32.1538 6.38904 31.8706 6.38904Z" fill="#148B45"/>
<path d="M19.4171 5.80203H3.30929C1.48459 5.80203 0 7.28655 0 9.11132V17.4311C0 19.2558 1.48452 20.7404 3.30929 20.7404H3.42489L2.76224 24.4196C2.69962 24.7674 2.8665 25.1139 3.17748 25.2816C3.4923 25.4515 3.87288 25.3957 4.1259 25.1554L8.663 20.8485C8.73649 20.7787 8.83268 20.7404 8.934 20.7404H19.417C21.2418 20.7404 22.7263 19.2558 22.7263 17.4311V9.11132C22.7265 7.28655 21.2419 5.80203 19.4171 5.80203ZM21.7009 17.4311C21.7009 18.6903 20.6764 19.7149 19.4171 19.7149H8.93406C8.56886 19.7149 8.22192 19.8533 7.95701 20.1048L3.88519 23.9699L4.46054 20.7755C4.56014 20.2225 4.13485 19.7148 3.57386 19.7148H3.30929C2.05003 19.7148 1.02553 18.6903 1.02553 17.431V9.11132C1.02553 7.85206 2.05003 6.82749 3.30929 6.82749H19.4171C20.6764 6.82749 21.7009 7.85206 21.7009 9.11132V17.4311Z" fill="black"/>
<path d="M32.0041 0H17.7008C16.0488 0 14.7048 1.34403 14.7048 2.99598V3.91793C14.7048 4.20116 14.9344 4.43066 15.2176 4.43066C15.5007 4.43066 15.7303 4.20116 15.7303 3.91793V2.99598C15.7303 1.9094 16.6142 1.02546 17.7007 1.02546H32.0041C33.0907 1.02546 33.9746 1.9094 33.9746 2.99598V10.2869C33.9746 11.3735 33.0907 12.2574 32.0041 12.2574H31.7691C31.2343 12.2574 30.8306 12.7414 30.9253 13.2668L31.405 15.9309L27.9166 12.6195C27.6708 12.386 27.3486 12.2574 27.0094 12.2574H24.6105C24.3273 12.2574 24.0978 12.4869 24.0978 12.7702C24.0978 13.0534 24.3273 13.2829 24.6105 13.2829H27.0094C27.0846 13.2829 27.1561 13.3114 27.2106 13.3632L31.2393 17.1876C31.4843 17.4201 31.8497 17.4698 32.1484 17.3085C32.4465 17.1476 32.6063 16.8156 32.5462 16.4824L31.9701 13.283H32.004C33.656 13.283 35 11.9389 35 10.287V2.99598C35.0001 1.34397 33.6561 0 32.0041 0Z" fill="black"/>
</svg>
