<svg width="27" height="26" viewBox="0 0 27 26" fill="none" xmlns="http://www.w3.org/2000/svg">
<path d="M9.92789 26C9.79426 26.0004 9.66115 25.9832 9.53194 25.9491C8.81471 25.7574 8.37382 25.0885 7.94741 24.4415C7.71679 24.0199 7.40214 23.6501 7.02292 23.355C6.57069 23.1688 6.08485 23.078 5.59588 23.0883C4.82961 23.0415 4.03846 22.9914 3.52366 22.4777C3.00885 21.964 2.95982 21.1714 2.91265 20.4055C2.92251 19.917 2.8316 19.4317 2.64559 18.9799C2.35055 18.6004 1.98062 18.2856 1.55878 18.0551C0.911746 17.6287 0.242797 17.1878 0.0515091 16.4705C-0.134207 15.7826 0.216796 15.0817 0.554428 14.4035C0.814062 13.9749 0.981429 13.4968 1.04583 12.9999C0.981164 12.5034 0.813809 12.0259 0.554428 11.5977C0.216796 10.9198 -0.13235 10.2186 0.0515091 9.53069C0.242797 8.81345 0.912117 8.37256 1.55878 7.94616C1.98059 7.71575 2.35052 7.40107 2.64559 7.02167C2.83166 6.56938 2.92245 6.08358 2.91228 5.59462C2.95982 4.8291 3.00848 4.03758 3.52329 3.5224C4.03809 3.00723 4.82961 2.95857 5.59551 2.9114C6.08399 2.92125 6.56927 2.83034 7.02106 2.64434C7.40075 2.34994 7.71603 1.98081 7.94741 1.55976C8.37382 0.91272 8.81471 0.243771 9.53194 0.0521119C10.2176 -0.130261 10.9207 0.217399 11.5993 0.555031C12.0275 0.813771 12.5049 0.980494 13.0011 1.04458C13.4974 0.979924 13.9748 0.812566 14.4029 0.553174C15.0815 0.215542 15.7846 -0.132118 16.4703 0.0502547C17.1875 0.241914 17.6284 0.910863 18.0548 1.5579C18.286 1.97963 18.6013 2.34941 18.9812 2.64434C19.4334 2.83058 19.9193 2.92138 20.4082 2.91103C21.1737 2.9582 21.9656 3.00723 22.4804 3.52203C22.9952 4.03684 23.0424 4.82836 23.0896 5.59425C23.0797 6.08274 23.1706 6.56802 23.3566 7.01981C23.6517 7.39934 24.0216 7.71415 24.4435 7.94467C25.0905 8.37108 25.7594 8.81197 25.9507 9.52921C26.1346 10.2171 25.7854 10.918 25.4478 11.5962C25.1882 12.0248 25.0208 12.5029 24.9564 12.9999C25.0211 13.4963 25.1884 13.9738 25.4478 14.402C25.7854 15.0803 26.1346 15.7812 25.9507 16.469C25.7594 17.1863 25.0901 17.6272 24.4435 18.0536C24.0215 18.2845 23.6515 18.5998 23.3566 18.9799C23.1706 19.4322 23.0798 19.918 23.09 20.407C23.0424 21.1725 22.9938 21.964 22.479 22.4792C21.9642 22.9944 21.1726 23.0412 20.4067 23.0883C19.9178 23.0783 19.4319 23.1692 18.9797 23.3554C18.6003 23.6505 18.2856 24.0203 18.0548 24.4418C17.6284 25.0889 17.1875 25.7578 16.4703 25.9495C15.7846 26.1322 15.0815 25.7842 14.4029 25.4466C13.9748 25.1872 13.4974 25.0198 13.0011 24.9552C12.5048 25.0198 12.0274 25.1872 11.5993 25.4466C11.0904 25.7534 10.5193 25.9425 9.92789 26ZM9.92789 0.742604C9.85861 0.742002 9.78956 0.750494 9.72249 0.767862C9.27677 0.88672 8.91648 1.43644 8.56585 1.96647C8.27935 2.48926 7.87867 2.94073 7.39361 3.28729C6.84408 3.53922 6.24487 3.66414 5.64045 3.65278C4.98376 3.69326 4.36384 3.73152 4.04738 4.04761C3.73092 4.3637 3.69303 4.98399 3.65254 5.64068C3.66404 6.24507 3.53924 6.84429 3.28743 7.39384C2.94162 7.87848 2.49122 8.27912 1.96958 8.56608C1.43844 8.91634 0.889832 9.27812 0.770602 9.72235C0.659172 10.1387 0.932546 10.6881 1.22115 11.2664C1.53854 11.7941 1.73256 12.3867 1.7887 12.9999C1.73199 13.6132 1.53734 14.2058 1.21929 14.7333C0.929575 15.3135 0.658058 15.8599 0.768745 16.2774C0.887974 16.7231 1.43732 17.0834 1.96773 17.4337C2.49045 17.7204 2.94189 18.1212 3.28854 18.6063C3.54047 19.1558 3.66539 19.755 3.65403 20.3594C3.69452 21.0161 3.73277 21.636 4.04886 21.9525C4.36495 22.269 4.98524 22.3068 5.64193 22.3473C6.24634 22.3357 6.8456 22.4605 7.39509 22.7124C7.88007 23.0591 8.28073 23.5105 8.56734 24.0333C8.9176 24.564 9.27937 25.113 9.7236 25.2319C10.14 25.3433 10.6893 25.0707 11.268 24.7817C11.7954 24.4636 12.3879 24.269 13.0011 24.2123C13.6144 24.269 14.2069 24.4636 14.7342 24.7817C15.3144 25.0707 15.863 25.3433 16.2786 25.2319C16.7244 25.113 17.0846 24.5633 17.4353 24.0333C17.7218 23.5105 18.1225 23.059 18.6075 22.7124C19.157 22.4605 19.7563 22.3356 20.3607 22.347C21.0174 22.3065 21.6373 22.2682 21.9538 21.9521C22.2702 21.636 22.3081 21.0157 22.3486 20.3591C22.3371 19.7547 22.4619 19.1554 22.7137 18.6059C23.0604 18.1209 23.5118 17.7203 24.0345 17.4337C24.5657 17.0834 25.1143 16.7216 25.2335 16.2774C25.3449 15.861 25.0716 15.3117 24.783 14.7333C24.4649 14.2058 24.2702 13.6132 24.2135 12.9999C24.2702 12.3865 24.4649 11.7939 24.783 11.2664C25.0716 10.6862 25.3442 10.1387 25.2335 9.72235C25.1143 9.27663 24.5649 8.91634 24.0345 8.56608C23.5118 8.27933 23.0604 7.87855 22.7137 7.39347C22.4618 6.84394 22.3368 6.24473 22.3482 5.64031C22.3077 4.98362 22.2695 4.3637 21.9534 4.04724C21.6373 3.73078 21.017 3.69289 20.3603 3.6524C19.7559 3.66408 19.1566 3.53927 18.6071 3.28729C18.1224 2.94116 17.7217 2.49037 17.4349 1.96833C17.0846 1.43755 16.7229 0.888577 16.2786 0.769719C15.8626 0.658289 15.3148 0.93092 14.7342 1.21989C14.2067 1.53732 13.6142 1.73134 13.0011 1.78744C12.3879 1.73077 11.7954 1.53611 11.268 1.21804C10.8592 0.96897 10.4033 0.807104 9.92901 0.742604H9.92789Z" fill="black"/>
<path d="M15.9624 18.2114C15.6049 18.2117 15.2531 18.1225 14.9389 17.952C14.6247 17.7815 14.3581 17.5351 14.1635 17.2353C13.9688 16.9354 13.8522 16.5916 13.8244 16.2353C13.7965 15.8789 13.8583 15.5212 14.004 15.1947C14.1497 14.8683 14.3747 14.5835 14.6586 14.3662C14.9425 14.149 15.2763 14.0062 15.6295 13.9509C15.9826 13.8956 16.344 13.9295 16.6808 14.0496C17.0175 14.1696 17.3188 14.372 17.5573 14.6383C17.8339 14.9463 18.0153 15.3278 18.0796 15.7367C18.1439 16.1457 18.0883 16.5645 17.9196 16.9425C17.7508 17.3205 17.4762 17.6415 17.1289 17.8667C16.7815 18.0919 16.3764 18.2117 15.9624 18.2114ZM15.9624 14.6691C15.6418 14.6694 15.3311 14.7797 15.0821 14.9816C14.8331 15.1835 14.6609 15.4648 14.5943 15.7783C14.5278 16.0919 14.5709 16.4189 14.7164 16.7045C14.8619 16.9901 15.101 17.2172 15.3939 17.3477C15.6867 17.4782 16.0154 17.5043 16.3251 17.4215C16.6348 17.3388 16.9067 17.1522 17.0954 16.8931C17.2841 16.634 17.3782 16.3179 17.3619 15.9977C17.3456 15.6776 17.2199 15.3727 17.0058 15.1341C16.8744 14.9871 16.7133 14.8697 16.5332 14.7895C16.3531 14.7094 16.1581 14.6683 15.9609 14.6691H15.9624Z" fill="#148B45"/>
<path d="M10.0418 12.0731C9.68428 12.0734 9.33242 11.9842 9.01822 11.8137C8.70401 11.6432 8.43745 11.3968 8.2428 11.0969C8.04814 10.7971 7.93158 10.4533 7.90373 10.0969C7.87588 9.74055 7.93762 9.38285 8.08333 9.05642C8.22904 8.72998 8.45409 8.44517 8.73799 8.22793C9.02189 8.01069 9.35562 7.86792 9.7088 7.81261C10.062 7.7573 10.4234 7.79122 10.7601 7.91127C11.0968 8.03132 11.3982 8.23369 11.6367 8.49995C11.9133 8.80796 12.0947 9.18951 12.1589 9.59844C12.2232 10.0074 12.1676 10.4262 11.9989 10.8042C11.8302 11.1822 11.5555 11.5032 11.2082 11.7284C10.8609 11.9536 10.4557 12.0733 10.0418 12.0731ZM10.0418 8.53078C9.72121 8.53118 9.4105 8.64157 9.16155 8.84351C8.9126 9.04546 8.7405 9.32672 8.67401 9.64031C8.60751 9.95389 8.65065 10.2808 8.79621 10.5664C8.94176 10.852 9.18093 11.079 9.47374 11.2095C9.76654 11.3399 10.0953 11.3659 10.4049 11.2832C10.7146 11.2004 10.9865 11.0139 11.1752 10.7547C11.3639 10.4956 11.4579 10.1795 11.4416 9.85939C11.4253 9.53925 11.2996 9.23441 11.0855 8.99582C10.9539 8.84904 10.7927 8.73174 10.6126 8.6516C10.4325 8.57146 10.2374 8.53028 10.0403 8.53078H10.0418Z" fill="#148B45"/>
<path d="M8.05109 18.194C7.97717 18.1941 7.90489 18.1722 7.84349 18.131C7.7821 18.0899 7.73439 18.0313 7.70647 17.9628C7.67855 17.8944 7.67169 17.8192 7.68676 17.7468C7.70184 17.6744 7.73816 17.6082 7.79109 17.5566L17.692 7.91125C17.7626 7.8423 17.8577 7.8042 17.9563 7.80535C18.055 7.8065 18.1492 7.8468 18.2181 7.91738C18.2871 7.98797 18.3252 8.08305 18.324 8.18172C18.3229 8.28039 18.2826 8.37456 18.212 8.44352L8.31035 18.0885C8.241 18.1561 8.14796 18.194 8.05109 18.194Z" fill="#148B45"/>
</svg>
