<svg width="28" height="36" viewBox="0 0 28 36" fill="none" xmlns="http://www.w3.org/2000/svg">
<path d="M20.6 30C18.6 30 16.8 29.2 15.4 27.8C14 26.4 13.2 24.5 13.2 22.6C13.2 21 12.6 19.6 11.5 18.5C10.4 17.4 8.89998 16.8 7.39998 16.8C5.79998 16.8 4.39998 17.4 3.29998 18.5C2.29998 19.5 1.69998 20.9 1.59998 22.4C1.69998 25.5 2.99998 28.5 5.19998 30.7C7.59998 33 10.7 34.3 14 34.3C17.3 34.3 20.4 33 22.8 30.7C23.3 30.2 23.7 29.8 24 29.4L24.2 29.1L23.9 29.3C22.8 29.8 21.7 30 20.6 30Z" fill="white"/>
<path d="M16.1 4.50001C15.4 3.70001 14.7 2.90001 14.1 2.20001L14 2.10001L13.9 2.20001C13.5 2.70001 13.1 3.10001 12.7 3.60001C12.4 3.90001 12.2 4.20001 11.9 4.50001L11.8 4.60001C8.89998 8.00001 5.19998 12.3 3.19998 16.3L3.09998 16.6L3.39998 16.4C4.59998 15.6 6.09998 15.2 7.49998 15.2C9.49998 15.2 11.3 16 12.7 17.4C14.1 18.8 14.9 20.6 14.9 22.6C14.9 24.2 15.5 25.6 16.6 26.7C17.7 27.8 19.2 28.4 20.7 28.4C22.3 28.4 23.7 27.8 24.8 26.7C25.7 25.8 26.2 24.8 26.4 23.7C26.4 23.5 26.5 23.3 26.5 23.1C26.5 23 26.5 22.9 26.5 22.8V21.9C26.4 16.5 20.5 9.60001 16.1 4.50001Z" fill="white"/>
<path d="M17.3 3.49976C17.1 3.19976 16.9 2.99976 16.7 2.79976C15.9 1.89976 15.2 1.09976 14.7 0.399762C14.7 0.399762 14.7 0.299762 14.6 0.299762C14.5 0.199762 14.3 0.099762 14.1 0.099762H14C13.8 0.099762 13.6 0.199762 13.5 0.399762C12.9 1.09976 12.2 1.89976 11.5 2.79976C11.3 2.99976 11.1 3.29976 10.9 3.49976L10.8 3.59976C6.2 8.89976 0 15.9998 0 21.8998V22.5998C0 22.5998 0 22.5998 0 22.6998C0 22.6998 0 22.7998 0 22.8998C0.2 26.2998 1.7 29.4998 4.1 31.7998C6.7 34.3998 10.3 35.8998 14 35.8998C17.7 35.8998 21.2 34.3998 23.9 31.7998C26 29.6998 27.4 26.8998 27.9 23.8998C27.9 23.5998 28 23.2998 28 22.9998C28 22.6998 28 22.2998 28 21.8998C28 15.8998 21.8 8.79976 17.3 3.49976ZM23.9 29.3998C23.6 29.7998 23.2 30.1998 22.7 30.6998C20.3 32.9998 17.2 34.2998 13.9 34.2998C10.6 34.2998 7.5 32.9998 5.1 30.6998C2.9 28.4998 1.6 25.4998 1.5 22.3998C1.6 20.8998 2.2 19.4998 3.2 18.4998C4.3 17.3998 5.8 16.7998 7.3 16.7998C8.8 16.7998 10.3 17.3998 11.4 18.4998C12.5 19.5998 13.1 21.0998 13.1 22.5998C13.1 24.4998 13.9 26.3998 15.3 27.7998C16.7 29.1998 18.5 29.9998 20.5 29.9998C21.7 29.9998 22.7 29.6998 23.8 29.1998L24.1 28.9998L23.9 29.3998ZM26.4 22.7998C26.4 22.8998 26.4 22.9998 26.4 23.0998C26.4 23.2998 26.4 23.4998 26.3 23.6998C26.1 24.7998 25.6 25.8998 24.7 26.6998C23.6 27.7998 22.1 28.3998 20.6 28.3998C19.1 28.3998 17.6 27.7998 16.5 26.6998C15.4 25.5998 14.8 24.0998 14.8 22.5998C14.8 20.5998 14 18.7998 12.6 17.3998C11.2 15.9998 9.4 15.1998 7.4 15.1998C6 15.1998 4.5 15.5998 3.3 16.3998L3 16.5998L3.1 16.2998C5.1 12.2998 8.8 7.99976 11.7 4.59976L11.8 4.49976C12.1 4.19976 12.3 3.89976 12.6 3.59976C13 3.09976 13.4 2.59976 13.8 2.19976L14 2.09976L14.1 2.19976C14.7 2.99976 15.4 3.69976 16.1 4.49976L16.2 4.59976C20.5 9.59976 26.5 16.4998 26.5 21.8998V22.7998H26.4Z" fill="#148B45"/>
</svg>
