<svg width="30" height="30" viewBox="0 0 30 30" fill="none" xmlns="http://www.w3.org/2000/svg">
<path d="M20.5707 9.12925H16.4131V4.59592C16.4134 4.26909 16.3067 3.95115 16.1092 3.69073C15.9117 3.4303 15.6344 3.24173 15.3196 3.15384C15.0048 3.06596 14.6699 3.08361 14.3661 3.20408C14.0623 3.32456 13.8063 3.54124 13.6373 3.82097C13.6298 3.8334 13.6229 3.8462 13.6166 3.85933L11.3135 8.68311C11.0955 9.14521 10.9712 9.64589 10.9476 10.1563H7.8415C7.72438 10.1563 7.61206 10.2028 7.52924 10.2856C7.44643 10.3684 7.3999 10.4808 7.3999 10.5979V17.4409C7.3999 17.558 7.44643 17.6704 7.52924 17.7532C7.61206 17.836 7.72438 17.8825 7.8415 17.8825H11.204C11.3809 18.1939 11.6371 18.4529 11.9466 18.6332C12.256 18.8135 12.6077 18.9086 12.9658 18.909H19.3415C19.805 18.9071 20.254 18.7473 20.6146 18.4559C20.9751 18.1646 21.2257 17.7592 21.3249 17.3064L22.5541 11.5843C22.6177 11.2884 22.6142 10.9821 22.5441 10.6878C22.474 10.3934 22.3388 10.1185 22.1487 9.8831C21.9585 9.64772 21.7181 9.45786 21.4451 9.32742C21.172 9.19698 20.8733 9.12927 20.5707 9.12925ZM8.2831 16.9993V11.0395H10.9372V16.8802C10.9372 16.9203 10.941 16.9597 10.9433 16.9993H8.2831ZM21.6906 11.3988L20.4614 17.1209C20.4054 17.3766 20.2639 17.6055 20.0603 17.77C19.8568 17.9345 19.6032 18.0247 19.3415 18.0258H12.9658C12.6621 18.0254 12.3709 17.9046 12.1562 17.6899C11.9414 17.4751 11.8206 17.1839 11.8202 16.8802V10.3443C11.8209 9.90126 11.92 9.46392 12.1104 9.0639L14.4047 4.26232C14.4768 4.15195 14.5825 4.06778 14.7063 4.02233C14.83 3.97688 14.9651 3.97257 15.0915 4.01004C15.2179 4.04751 15.3288 4.12476 15.4078 4.23032C15.4868 4.33587 15.5296 4.46409 15.5299 4.59592V9.57085C15.5299 9.68797 15.5764 9.80029 15.6592 9.88311C15.742 9.96592 15.8544 10.0125 15.9715 10.0125H20.5707C20.7415 10.0125 20.9102 10.0508 21.0644 10.1245C21.2185 10.1982 21.3542 10.3054 21.4616 10.4383C21.569 10.5712 21.6452 10.7264 21.6849 10.8926C21.7245 11.0588 21.7264 11.2318 21.6906 11.3988Z" fill="#148B45"/>
<path d="M26.259 0H3.74098C2.74914 0.00106872 1.79823 0.39555 1.09689 1.09689C0.39555 1.79823 0.00106872 2.74914 0 3.74098V19.2775C0.0010686 20.2693 0.395542 21.2203 1.09687 21.9217C1.7982 22.623 2.74912 23.0176 3.74098 23.0187H8.05604V29.5584C8.05604 29.6501 8.08461 29.7396 8.13778 29.8144C8.19095 29.8891 8.26607 29.9454 8.35272 29.9755C8.43937 30.0056 8.53324 30.008 8.6213 29.9823C8.70936 29.9566 8.78723 29.9042 8.84411 29.8322L14.2248 23.019H26.2588C27.2506 23.0178 28.2016 22.6233 28.9029 21.9219C29.6042 21.2205 29.9987 20.2696 29.9998 19.2777V3.74098C29.9987 2.74918 29.6043 1.79831 28.903 1.09698C28.2017 0.395646 27.2508 0.00113551 26.259 0ZM29.1168 19.2775C29.116 20.0352 28.8147 20.7616 28.2789 21.2974C27.7432 21.8332 27.0167 22.1346 26.259 22.1355H14.0113C13.9446 22.1355 13.8788 22.1506 13.8187 22.1796C13.7587 22.2087 13.706 22.251 13.6646 22.3033L8.93949 28.2866V22.5771C8.93943 22.46 8.89288 22.3477 8.81008 22.2649C8.72728 22.1821 8.61499 22.1356 8.49789 22.1355H3.74098C2.98327 22.1346 2.25685 21.8332 1.72109 21.2974C1.18534 20.7616 0.884001 20.0352 0.8832 19.2775V3.74098C0.884001 2.9833 1.18535 2.25687 1.72111 1.72111C2.25687 1.18535 2.9833 0.884001 3.74098 0.8832H26.259C27.0167 0.884001 27.7431 1.18535 28.2789 1.72111C28.8147 2.25687 29.116 2.9833 29.1168 3.74098V19.2775Z" fill="black"/>
</svg>
