<svg width="36" height="36" viewBox="0 0 36 36" fill="none" xmlns="http://www.w3.org/2000/svg">
<path d="M27.1 31.2C27 30.8 26.5 30.7 26.2 30.8C25.8 30.9 25.7 31.4 25.8 31.7C25.9 32 26.2 32.1 26.5 32.1C26.6 32.1 26.7 32.1 26.8 32C27.1 32 27.3 31.6 27.1 31.2Z" fill="#148B45"/>
<path d="M24.2 18.7H11.8L11 20.7H11.7C12.1 20.7 12.4 21 12.4 21.4C12.4 21.8 12.1 22.1 11.7 22.1H10.4L9.60002 24.1H10.3C10.7 24.1 11 24.4 11 24.8C11 25.2 10.7 25.5 10.3 25.5H8.80002L8.00002 27.5H8.60002C9.00002 27.5 9.30002 27.8 9.30002 28.2C9.30002 28.6 9.00002 28.9 8.60002 28.9H7.40002L6.60002 30.9H7.30002C7.70002 30.9 8.00002 31.2 8.00002 31.6C8.00002 32 7.70002 32.3 7.30002 32.3H6.00002C5.90002 32.8 6.00002 33.3 6.30002 33.8C6.70002 34.4 7.40002 34.7 8.10002 34.7H27.8C28.5 34.7 29.2 34.4 29.6 33.8C30 33.2 30.1 32.5 29.8 31.9L24.2 18.7ZM25.8 29.7C25.7 29.7 25.6 29.8 25.5 29.8C25.2 29.8 25 29.6 24.8 29.4L22.3 23.3C22.2 22.9 22.3 22.5 22.7 22.4C23.1 22.3 23.5 22.4 23.6 22.8L26.1 28.9C26.3 29.2 26.1 29.6 25.8 29.7Z" fill="white"/>
<path d="M14.9 4.49999V9.39999C14.9 10.7 14.6 12 14.1 13.2L12.3 17.3H23.6L21.8 13.2C21.3 12 21 10.7 21 9.39999V4.49999C21 3.59999 21.4 2.69999 22 2.09999C22.2 1.89999 22.3 1.69999 22.3 1.39999H13.5C13.5 1.69999 13.6 1.89999 13.8 2.09999C14.6 2.69999 14.9 3.59999 14.9 4.49999Z" fill="white"/>
<path d="M31.2 31.2L23.2 12.6C22.8 11.6 22.5 10.5 22.5 9.4V4.5C22.5 4 22.7 3.5 23.1 3.1C23.6 2.6 23.8 2 23.8 1.4V0.7C23.8 0.3 23.5 0 23.1 0H12.8C12.4 0 12.1 0.3 12.1 0.7V1.4C12.1 2 12.4 2.6 12.8 3.1C13.2 3.5 13.4 4 13.4 4.5V9.4C13.4 10.5 13.2 11.6 12.7 12.6L10.5 17.7L4.79999 31.2C4.29999 32.3 4.49999 33.5 5.09999 34.5C5.79999 35.5 6.89999 36 8.09999 36H27.8C29 36 30.2 35.4 30.8 34.5C31.6 33.5 31.7 32.3 31.2 31.2ZM29.6 33.7C29.2 34.3 28.5 34.6 27.8 34.6H8.19999C7.49999 34.6 6.79999 34.3 6.39999 33.7C6.09999 33.3 5.99999 32.7 6.09999 32.2H7.29999C7.69999 32.2 7.99999 31.9 7.99999 31.5C7.99999 31.1 7.69999 30.8 7.29999 30.8H6.49999L7.29999 28.8H8.49999C8.89999 28.8 9.19999 28.5 9.19999 28.1C9.19999 27.7 8.89999 27.4 8.49999 27.4H7.99999L8.79999 25.4H10.1C10.5 25.4 10.8 25.1 10.8 24.7C10.8 24.3 10.5 24 10.1 24H9.49999L10.3 22H11.6C12 22 12.3 21.7 12.3 21.3C12.3 20.9 12 20.6 11.6 20.6H10.9L11.7 18.6H24.2L29.8 31.6C30.1 32.4 30.1 33.1 29.6 33.7ZM22.4 1.4C22.4 1.7 22.3 1.9 22.1 2.1C21.4 2.7 21.1 3.6 21.1 4.5V9.4C21.1 10.7 21.4 12 21.9 13.2L23.7 17.3H12.4L14.2 13.2C14.7 12 15 10.7 15 9.4V4.5C15 3.6 14.6 2.7 14 2.1C13.8 1.9 13.7 1.7 13.7 1.4H22.4Z" fill="#148B45"/>
<path d="M23.6 22.7C23.5 22.3 23 22.2 22.7 22.3C22.3 22.4 22.2 22.9 22.3 23.2L24.8 29.3C24.9 29.6 25.2 29.7 25.5 29.7C25.6 29.7 25.7 29.7 25.8 29.6C26.2 29.5 26.3 29 26.2 28.7L23.6 22.7Z" fill="#148B45"/>
</svg>
