<svg width="24" height="30" viewBox="0 0 24 30" fill="none" xmlns="http://www.w3.org/2000/svg">
<path d="M23.0637 6.07418L11.7884 0.0661051C11.6211 -0.0231702 11.4207 -0.0219173 11.2546 0.0692375L0.291319 6.07731C0.111516 6.17598 0 6.36456 0 6.56973V14.4178C0.0065782 20.8691 3.82881 26.7055 9.73978 29.2901L11.2615 29.9533C11.4037 30.0153 11.5657 30.0156 11.7082 29.9539L13.4229 29.2134C19.4435 26.6849 23.3604 20.7921 23.361 14.2621V6.56973C23.361 6.36236 23.2467 6.1716 23.0637 6.07418ZM22.2383 14.2621C22.2371 20.3419 18.5893 25.8278 12.9834 28.1806L12.9797 28.1825L11.4864 28.8272L10.189 28.2611C4.6868 25.8554 1.12863 20.4231 1.12236 14.4178V6.90209L11.5281 1.19912L22.2383 6.90616V14.2621Z" fill="black"/>
<path d="M7.38642 14.0538C7.185 13.818 6.83072 13.7901 6.59484 13.9915C6.35897 14.1926 6.33109 14.5472 6.53251 14.7828L9.4977 18.2551C9.69567 18.4869 10.0424 18.5185 10.2786 18.3262L17.1845 12.7078C17.425 12.5123 17.4614 12.1587 17.2656 11.9181C17.0701 11.6779 16.7165 11.6412 16.4759 11.837L9.99545 17.1089L7.38642 14.0538Z" fill="#148B45"/>
</svg>
