<svg width="36" height="37" viewBox="0 0 36 37" fill="none" xmlns="http://www.w3.org/2000/svg">
<g clip-path="url(#clip0)">
<path d="M18 24.8507C21.3137 24.8507 24 22.1644 24 18.8507C24 15.537 21.3137 12.8507 18 12.8507C14.6863 12.8507 12 15.537 12 18.8507C12 22.1644 14.6863 24.8507 18 24.8507Z" fill="white"/>
<path d="M33.8 16.4515L30.5 16.0515C30.2 16.0515 30 15.8515 29.9 15.5515C29.6 14.6515 29.3 13.7515 28.8 12.8515C28.7 12.5515 28.7 12.2515 28.9 12.0515L30.9 9.4515C31.1 9.1515 31.1 8.7515 30.9 8.4515L28.5 6.0515C28.2 5.7515 27.8 5.7515 27.5 5.9515L24.9 7.9515C24.7 8.1515 24.3 8.1515 24.1 8.0515C23.3 7.5515 22.4 7.2515 21.4 6.9515C21.1 6.8515 20.9 6.6515 20.9 6.3515L20.5 3.0515C20.5 2.6515 20.1 2.3515 19.8 2.3515H16.4C16 2.3515 15.7 2.6515 15.7 3.0515L15.3 6.3515C15.3 6.6515 15.1 6.8515 14.8 6.9515C13.9 7.2515 13 7.5515 12.1 8.0515C11.8 8.1515 11.5 8.1515 11.3 7.9515L8.7 5.9515C8.4 5.7515 8 5.7515 7.7 5.9515L5.2 8.3515C4.9 8.6515 4.9 9.0515 5.1 9.3515L7.1 11.9515C7.3 12.1515 7.3 12.5515 7.2 12.7515C6.7 13.5515 6.4 14.4515 6.1 15.4515C6 15.7515 5.8 15.9515 5.5 15.9515L2.2 16.3515C1.8 16.3515 1.5 16.7515 1.5 17.0515V20.4515C1.5 20.8515 1.8 21.1515 2.2 21.1515L5.5 21.5515C5.8 21.5515 6 21.7515 6.1 22.0515C6.4 22.9515 6.7 23.8515 7.2 24.7515C7.3 25.0515 7.3 25.3515 7.1 25.5515L5.1 28.1515C4.9 28.4515 4.9 28.8515 5.1 29.1515L7.5 31.5515C7.8 31.8515 8.2 31.8515 8.5 31.6515L11.1 29.6515C11.2 29.5515 11.4 29.4515 11.6 29.4515C11.7 29.4515 11.9 29.4515 12 29.5515C12.8 30.0515 13.7 30.3515 14.7 30.6515C15 30.7515 15.2 30.9515 15.2 31.2515L15.6 34.5515C15.6 34.9515 16 35.2515 16.3 35.2515H19.7C20.1 35.2515 20.4 34.9515 20.4 34.5515L20.8 31.2515C20.8 30.9515 21 30.7515 21.3 30.6515C22.2 30.3515 23.1 30.0515 24 29.5515C24.3 29.4515 24.6 29.4515 24.8 29.6515L27.4 31.6515C27.7 31.8515 28.1 31.8515 28.4 31.5515L30.8 29.1515C31.1 28.8515 31.1 28.4515 30.9 28.1515L28.9 25.5515C28.7 25.3515 28.7 24.9515 28.8 24.7515C29.3 23.9515 29.6 23.0515 29.9 22.0515C30 21.7515 30.2 21.5515 30.5 21.5515L33.8 21.1515C34.2 21.1515 34.5 20.7515 34.5 20.4515V17.0515C34.5 16.7515 34.2 16.4515 33.8 16.4515ZM18 26.3515C13.9 26.3515 10.5 22.9515 10.5 18.8515C10.5 14.7515 13.9 11.3515 18 11.3515C22.1 11.3515 25.5 14.7515 25.5 18.8515C25.5 22.9515 22.1 26.3515 18 26.3515Z" fill="white"/>
<path d="M34 14.9507L31.2 14.5507C31 13.8507 30.7 13.1507 30.3 12.4507L32 10.2507C32.7 9.35071 32.6 8.05071 31.8 7.25071L29.4 4.85071C28.6 4.05071 27.3 3.95071 26.4 4.65071L24.2 6.35071C23.7 6.15071 23 5.85071 22.3 5.65071L21.9 2.85071C21.8 1.75071 20.8 0.850708 19.7 0.850708H16.3C15.2 0.850708 14.2 1.75071 14.1 2.85071L13.7 5.65071C13 5.85071 12.3 6.15071 11.7 6.45071L9.4 4.75071C8.5 4.05071 7.2 4.15071 6.4 4.95071L4.1 7.35071C3.3 8.15071 3.2 9.45071 3.9 10.3507L5.6 12.5507C5.3 13.1507 5 13.8507 4.8 14.5507L2 14.9507C0.9 15.0507 0 16.0507 0 17.1507V20.5507C0 21.6507 0.9 22.6507 2 22.7507L4.8 23.1507C5 23.8507 5.3 24.5507 5.6 25.1507L3.9 27.3507C3.2 28.2507 3.3 29.5507 4.1 30.3507L6.5 32.7507C7.3 33.5507 8.6 33.6507 9.5 32.9507L11.7 31.2507C12.4 31.5507 13 31.8507 13.8 32.1507L14.2 34.9507C14.3 36.0507 15.3 36.9507 16.4 36.9507H19.8C20.9 36.9507 21.9 36.0507 22 34.9507L22.4 32.1507C23.1 31.9507 23.8 31.6507 24.5 31.2507L26.7 32.9507C27.6 33.6507 28.9 33.5507 29.7 32.7507L32.1 30.3507C32.9 29.5507 33 28.2507 32.3 27.3507L30.6 25.1507C30.9 24.4507 31.2 23.8507 31.5 23.0507L34.3 22.6507C35.4 22.5507 36.3 21.5507 36.3 20.4507V17.0507C36 16.0507 35.1 15.0507 34 14.9507ZM34.5 20.5507C34.5 20.9507 34.2 21.2507 33.8 21.2507L30.5 21.6507C30.2 21.6507 30 21.8507 29.9 22.1507C29.6 23.0507 29.3 23.9507 28.8 24.8507C28.7 25.1507 28.7 25.4507 28.9 25.6507L30.9 28.2507C31.1 28.5507 31.1 28.9507 30.8 29.2507L28.4 31.6507C28.1 31.9507 27.7 31.9507 27.4 31.7507L24.8 29.7507C24.6 29.5507 24.2 29.5507 24 29.6507C23.2 30.1507 22.3 30.4507 21.3 30.7507C21 30.8507 20.8 31.0507 20.8 31.3507L20.4 34.6507C20.4 35.0507 20 35.3507 19.7 35.3507H16.3C15.9 35.3507 15.6 35.0507 15.6 34.6507L15.2 31.3507C15.2 31.0507 15 30.8507 14.7 30.7507C13.8 30.4507 12.9 30.1507 12 29.6507C11.9 29.5507 11.8 29.5507 11.6 29.5507C11.4 29.5507 11.3 29.6507 11.1 29.7507L8.5 31.7507C8.2 31.9507 7.8 31.9507 7.5 31.6507L5.1 29.2507C4.8 28.9507 4.8 28.5507 5.1 28.2507L7.1 25.6507C7.3 25.4507 7.3 25.0507 7.2 24.8507C6.7 24.0507 6.4 23.1507 6.1 22.1507C6 21.8507 5.8 21.6507 5.5 21.6507L2.2 21.2507C1.8 21.2507 1.5 20.8507 1.5 20.5507V17.1507C1.5 16.7507 1.8 16.4507 2.2 16.4507L5.5 16.0507C5.8 16.0507 6 15.8507 6.1 15.5507C6.4 14.6507 6.7 13.7507 7.2 12.8507C7.3 12.5507 7.3 12.2507 7.1 12.0507L5.1 9.45071C4.9 9.15071 4.9 8.75071 5.2 8.45071L7.6 6.05071C7.9 5.75071 8.3 5.75071 8.6 6.05071L11.2 8.05071C11.4 8.25071 11.8 8.25071 12 8.15071C12.8 7.65071 13.7 7.35071 14.7 7.05071C15 6.95071 15.2 6.75071 15.2 6.45071L15.6 3.15071C15.6 2.75071 16 2.45071 16.3 2.45071H19.7C20.1 2.45071 20.4 2.75071 20.4 3.15071L20.8 6.45071C20.8 6.75071 21 6.95071 21.3 7.05071C22.2 7.35071 23.1 7.65071 24 8.15071C24.3 8.25071 24.6 8.25071 24.8 8.05071L27.4 6.05071C27.7 5.85071 28.1 5.85071 28.4 6.15071L30.8 8.55071C31.1 8.85071 31.1 9.25071 30.8 9.55071L28.8 12.1507C28.6 12.3507 28.6 12.7507 28.7 12.9507C29.2 13.7507 29.5 14.6507 29.8 15.6507C29.9 15.9507 30.1 16.1507 30.4 16.1507L33.7 16.5507C34.1 16.5507 34.4 16.9507 34.4 17.2507V20.5507H34.5Z" fill="#148B45"/>
<path d="M18 11.3507C13.9 11.3507 10.5 14.7507 10.5 18.8507C10.5 22.9507 13.9 26.3507 18 26.3507C22.1 26.3507 25.5 22.9507 25.5 18.8507C25.5 14.7507 22.1 11.3507 18 11.3507ZM18 24.8507C14.7 24.8507 12 22.1507 12 18.8507C12 15.5507 14.7 12.8507 18 12.8507C21.3 12.8507 24 15.5507 24 18.8507C24 22.1507 21.3 24.8507 18 24.8507Z" fill="#148B45"/>
</g>
<defs>
<clipPath id="clip0">
<rect width="36" height="36" fill="white" transform="translate(0 0.850708)"/>
</clipPath>
</defs>
</svg>
