<svg width="26" height="30" viewBox="0 0 26 30" fill="none" xmlns="http://www.w3.org/2000/svg">
<path d="M20.5417 6.75405L21.8179 4.53398C21.8763 4.43248 21.8919 4.31196 21.8614 4.19894C21.8309 4.08591 21.7567 3.98964 21.6552 3.93128L19.8507 2.89466C19.7491 2.83635 19.6286 2.82077 19.5156 2.85133C19.4025 2.88189 19.3063 2.9561 19.248 3.05764L17.9737 5.27543C16.8247 4.77984 15.6092 4.45565 14.3661 4.31323V2.96379H15.2617C15.3788 2.96379 15.4911 2.91727 15.5739 2.83448C15.6567 2.75168 15.7032 2.63939 15.7032 2.5223V0.44149C15.7032 0.383504 15.6918 0.326079 15.6696 0.2725C15.6475 0.218921 15.6149 0.170238 15.5739 0.129236C15.5329 0.0882329 15.4843 0.0557142 15.4307 0.033539C15.3771 0.0113638 15.3197 -3.30915e-05 15.2617 7.2169e-08H10.5067C10.4487 -3.30915e-05 10.3913 0.0113638 10.3377 0.033539C10.2841 0.0557142 10.2355 0.0882329 10.1945 0.129236C10.1535 0.170238 10.1209 0.218921 10.0988 0.2725C10.0766 0.326079 10.0652 0.383504 10.0652 0.44149V2.5223C10.0652 2.63939 10.1117 2.75168 10.1945 2.83448C10.2773 2.91727 10.3896 2.96379 10.5067 2.96379H11.4023V4.31197C10.1592 4.45438 8.94365 4.77857 7.7947 5.27417L6.52043 3.05637C6.49158 3.00608 6.4531 2.96196 6.40719 2.92654C6.36128 2.89112 6.30884 2.86511 6.25286 2.84997C6.19689 2.83483 6.13848 2.83088 6.08098 2.83833C6.02347 2.84578 5.968 2.8645 5.91774 2.8934L4.11318 3.93002C4.01169 3.98838 3.93753 4.08465 3.90702 4.19768C3.8765 4.3107 3.89213 4.43121 3.95046 4.53272L5.22674 6.75405C3.04573 8.36584 1.42893 10.6247 0.606598 13.209C-0.21573 15.7933 -0.201644 18.5711 0.646849 21.1469C1.49534 23.7227 3.13497 25.9651 5.33221 27.5547C7.52946 29.1443 10.1723 30 12.8842 30C15.5961 30 18.2389 29.1443 20.4362 27.5547C22.6334 25.9651 24.2731 23.7227 25.1216 21.1469C25.97 18.5711 25.9841 15.7933 25.1618 13.209C24.3395 10.6247 22.7227 8.36584 20.5417 6.75405ZM19.7936 3.87805L20.8323 4.47621L19.8111 6.25377C19.4747 6.03883 19.1288 5.83936 18.7734 5.65536L19.7936 3.87805ZM10.9482 0.882981H14.8202V2.08081H10.9482V0.882981ZM12.2853 2.96379H13.4831V4.23957C13.2846 4.23023 13.086 4.22393 12.8842 4.22393C12.6824 4.22393 12.4838 4.22998 12.2853 4.23932V2.96379ZM4.93611 4.47621L5.97475 3.87956L6.99497 5.65536C6.63926 5.83903 6.29338 6.03849 5.95734 6.25377L4.93611 4.47621ZM12.8842 29.1096C10.5106 29.1096 8.19025 28.4057 6.21665 27.087C4.24306 25.7683 2.70483 23.8939 1.7965 21.701C0.888159 19.508 0.650509 17.095 1.1136 14.767C1.57669 12.439 2.71972 10.3005 4.39815 8.62215C6.07657 6.94376 8.21501 5.80077 10.543 5.33773C12.8711 4.87469 15.2841 5.11239 17.477 6.02077C19.67 6.92915 21.5443 8.46742 22.863 10.441C24.1817 12.4147 24.8855 14.735 24.8854 17.1086C24.8817 20.2904 23.6161 23.3408 21.3663 25.5906C19.1164 27.8405 16.066 29.106 12.8842 29.1096Z" fill="black"/>
<path d="M21.5647 22.0755C22.4378 20.5561 22.895 18.8333 22.8902 17.0809C22.8854 15.3284 22.4188 13.6082 21.5374 12.0935C21.5316 12.0784 21.5248 12.0637 21.5173 12.0494C21.5094 12.0376 21.501 12.0263 21.492 12.0153C20.6234 10.5541 19.3992 9.33627 17.9334 8.47535C17.9213 8.46542 17.9087 8.45623 17.8955 8.44785C17.8812 8.44042 17.8665 8.43385 17.8514 8.42817C16.332 7.555 14.6094 7.09774 12.857 7.10248C11.1046 7.10722 9.38449 7.57379 7.8699 8.45516C7.85456 8.46123 7.83957 8.46814 7.825 8.47585C7.81339 8.48368 7.80219 8.4921 7.79144 8.50108C6.32994 9.36968 5.11191 10.5939 4.25069 12.0597C4.22977 12.0836 4.21382 12.1114 4.20377 12.1415C3.33064 13.6609 2.87343 15.3836 2.87821 17.136C2.88299 18.8884 3.3496 20.6086 4.23101 22.1232C4.23691 22.1384 4.24365 22.1532 4.2512 22.1676C4.25675 22.1772 4.26507 22.1843 4.27112 22.1928C5.13986 23.6576 6.36568 24.8783 7.83408 25.7409C7.84642 25.7509 7.8593 25.7603 7.87268 25.7689C7.88378 25.7752 7.89589 25.7777 7.90724 25.7833C9.42934 26.66 11.156 27.119 12.9125 27.114C14.669 27.109 16.3931 26.6401 17.9101 25.7548C17.921 25.7495 17.9326 25.7472 17.9432 25.7409C17.9538 25.7346 17.9654 25.7245 17.9767 25.7157C19.4416 24.8452 20.6618 23.6175 21.5233 22.1474C21.5301 22.1376 21.5387 22.1303 21.5447 22.1197C21.5524 22.1054 21.559 22.0907 21.5647 22.0755ZM17.87 24.7426L17.3027 23.7756C17.2434 23.6746 17.1465 23.6012 17.0332 23.5717C16.9199 23.5421 16.7995 23.5587 16.6984 23.618C16.5974 23.6772 16.524 23.7741 16.4945 23.8874C16.4649 24.0007 16.4816 24.1211 16.5408 24.2222L17.1089 25.1914C15.9379 25.807 14.6462 26.1585 13.3247 26.2212V25.0948C13.3247 24.9777 13.2782 24.8654 13.1954 24.7826C13.1126 24.6998 13.0003 24.6533 12.8832 24.6533C12.7661 24.6533 12.6538 24.6998 12.571 24.7826C12.4882 24.8654 12.4417 24.9777 12.4417 25.0948V26.2212C11.1379 26.1587 9.86301 25.815 8.70444 25.2136L9.26703 24.2416C9.32384 24.1404 9.33849 24.0208 9.30782 23.9089C9.27716 23.7969 9.20363 23.7016 9.10316 23.6434C9.0027 23.5853 8.88338 23.569 8.77103 23.5982C8.65868 23.6274 8.56234 23.6997 8.50287 23.7993L7.94104 24.7704C6.86766 24.0752 5.95111 23.1637 5.24997 22.0942L6.21797 21.5271C6.31845 21.4676 6.39129 21.3708 6.42055 21.2577C6.44981 21.1447 6.4331 21.0247 6.37409 20.924C6.31508 20.8232 6.21857 20.75 6.10567 20.7202C5.99278 20.6904 5.87269 20.7066 5.77169 20.7652L4.80243 21.3333C4.1868 20.1623 3.83521 18.8706 3.77237 17.5491H4.8988C5.01589 17.5491 5.12818 17.5026 5.21098 17.4198C5.29377 17.337 5.34029 17.2247 5.34029 17.1076C5.34029 16.9905 5.29377 16.8782 5.21098 16.7954C5.12818 16.7126 5.01589 16.6661 4.8988 16.6661H3.77237C3.83462 15.362 4.17808 14.0868 4.77922 12.9278L5.75151 13.4902C5.85266 13.5458 5.97158 13.5596 6.0828 13.5286C6.19401 13.4976 6.28865 13.4243 6.34646 13.3244C6.40426 13.2245 6.42062 13.1059 6.39203 12.994C6.36344 12.8822 6.29217 12.786 6.1935 12.726L5.22273 12.1642C5.91786 11.0912 6.82916 10.175 7.89841 9.47412L8.46579 10.4421C8.52524 10.5426 8.62208 10.6154 8.73511 10.6447C8.84813 10.674 8.96815 10.6573 9.06889 10.5982C9.16963 10.5392 9.2429 10.4427 9.27265 10.3298C9.30241 10.2169 9.28624 10.0968 9.22767 9.99584L8.65954 9.02658C9.83053 8.41091 11.1222 8.05939 12.4437 7.99677V9.12295C12.4437 9.24004 12.4903 9.35234 12.5731 9.43513C12.6558 9.51793 12.7681 9.56444 12.8852 9.56444C13.0023 9.56444 13.1146 9.51793 13.1974 9.43513C13.2802 9.35234 13.3267 9.24004 13.3267 9.12295V7.99677C14.6308 8.05894 15.906 8.40232 17.065 9.00337L16.5014 9.97591C16.4715 10.0261 16.4518 10.0818 16.4435 10.1397C16.4352 10.1976 16.4386 10.2565 16.4533 10.3131C16.468 10.3697 16.4937 10.4228 16.5291 10.4693C16.5645 10.5159 16.6088 10.5549 16.6594 10.5842C16.71 10.6135 16.7659 10.6324 16.8239 10.6399C16.8819 10.6474 16.9408 10.6433 16.9972 10.6279C17.0536 10.6124 17.1064 10.586 17.1524 10.5499C17.1985 10.5139 17.237 10.4691 17.2656 10.4182L17.8274 9.44612C18.9008 10.1415 19.8174 11.0531 20.5185 12.1228L19.5505 12.6899C19.5002 12.7191 19.4561 12.7579 19.4209 12.8041C19.3856 12.8504 19.3598 12.9031 19.345 12.9593C19.3302 13.0156 19.3266 13.0742 19.3345 13.1318C19.3424 13.1894 19.3616 13.2448 19.391 13.295C19.4204 13.3452 19.4594 13.389 19.5058 13.4241C19.5522 13.4592 19.605 13.4847 19.6613 13.4993C19.7176 13.5138 19.7762 13.5172 19.8338 13.509C19.8913 13.5009 19.9467 13.4814 19.9968 13.4518L20.9663 12.8837C21.5817 14.0548 21.9332 15.3464 21.9961 16.6679H20.8696C20.7526 16.6679 20.6403 16.7144 20.5575 16.7972C20.4747 16.88 20.4282 16.9923 20.4282 17.1094C20.4282 17.2265 20.4747 17.3388 20.5575 17.4216C20.6403 17.5044 20.7526 17.5509 20.8696 17.5509H21.9961C21.9337 18.8546 21.5902 20.1295 20.9892 21.2882L20.0172 20.7256C19.9158 20.6669 19.7953 20.6509 19.6822 20.6812C19.569 20.7114 19.4725 20.7853 19.4139 20.8866C19.3552 20.988 19.3392 21.1085 19.3694 21.2217C19.3997 21.3348 19.4736 21.4313 19.5749 21.49L20.5457 22.0518C19.8507 23.1251 18.9394 24.0415 17.87 24.7426Z" fill="black"/>
<path d="M19.5428 17.1086C19.5428 16.9915 19.4963 16.8792 19.4135 16.7965C19.3307 16.7137 19.2184 16.6671 19.1013 16.6671H14.8504C14.7661 16.2949 14.5781 15.9542 14.3083 15.6843C14.0385 15.4144 13.6978 15.2265 13.3256 15.1421V10.8914C13.3256 10.7744 13.2791 10.6621 13.1963 10.5793C13.1135 10.4965 13.0012 10.45 12.8841 10.45C12.767 10.45 12.6547 10.4965 12.5719 10.5793C12.4891 10.6621 12.4426 10.7744 12.4426 10.8914V15.1421C12.0904 15.221 11.7658 15.393 11.5027 15.6402C11.2396 15.8873 11.0478 16.2006 10.9471 16.5473C10.8465 16.8939 10.8408 17.2612 10.9306 17.6108C11.0203 17.9604 11.2024 18.2795 11.4576 18.5348C11.7128 18.79 12.0319 18.9721 12.3815 19.0619C12.7311 19.1517 13.0984 19.146 13.4451 19.0454C13.7917 18.9448 14.105 18.753 14.3522 18.49C14.5994 18.2269 14.7714 17.9024 14.8504 17.5501H19.1013C19.2183 17.5501 19.3306 17.5035 19.4134 17.4207C19.4962 17.338 19.5427 17.2257 19.5428 17.1086ZM12.8841 18.2421C12.6598 18.2422 12.4406 18.1757 12.2541 18.0512C12.0676 17.9266 11.9223 17.7495 11.8364 17.5424C11.7506 17.3352 11.7281 17.1072 11.7719 16.8873C11.8156 16.6673 11.9236 16.4653 12.0821 16.3067C12.2407 16.1481 12.4428 16.0401 12.6627 15.9964C12.8827 15.9527 13.1106 15.9751 13.3178 16.061C13.525 16.1468 13.7021 16.2922 13.8266 16.4787C13.9512 16.6651 14.0176 16.8844 14.0176 17.1086C14.0171 17.4091 13.8975 17.6972 13.6851 17.9096C13.4726 18.1221 13.1846 18.2417 12.8841 18.2421Z" fill="#148B45"/>
</svg>
